PathFileType	4	(X/Y/Z)	 1.9Hzlow3min.trc
DataRate	CameraRate	NumFrames	NumMarkers	Units	OrigDataRate	OrigDataStartFrame	OrigNumFrames
200	200	8	42	m	200	626	1000
Frame#	Time	C7			LSH			RSH			MAN			RASI			LASI			HIPR			HIPL			RPSI			LPSI			COX			RTHI1			RTHI2			RTHI3			RTHI4			RLKN			RMKN			RSHA1			RSHA2			RSHA3			RSHA4			RLMAL			RHEEL			RMET5			RMET1			RTOE			LTHI1			LTHI2			LTHI3			LTHI4			LLKN			LMKN			LSHA1			LSHA2			LSHA3			LSHA4			LLMAL			LMMAL			LHEEL			LMET5			LMET1			LTOE			
		X1	Y1	Z1	X2	Y2	Z2	X3	Y3	Z3	X4	Y4	Z4	X5	Y5	Z5	X6	Y6	Z6	X7	Y7	Z7	X8	Y8	Z8	X9	Y9	Z9	X10	Y10	Z10	X11	Y11	Z11	X12	Y12	Z12	X13	Y13	Z13	X14	Y14	Z14	X15	Y15	Z15	X16	Y16	Z16	X17	Y17	Z17	X18	Y18	Z18	X19	Y19	Z19	X20	Y20	Z20	X21	Y21	Z21	X22	Y22	Z22	X23	Y23	Z23	X24	Y24	Z24	X25	Y25	Z25	X26	Y26	Z26	X27	Y27	Z27	X28	Y28	Z28	X29	Y29	Z29	X30	Y30	Z30	X31	Y31	Z31	X32	Y32	Z32	X33	Y33	Z33	X34	Y34	Z34	X35	Y35	Z35	X36	Y36	Z36	X37	Y37	Z37	X38	Y38	Z38	X39	Y39	Z39	X40	Y40	Z40	X41	Y41	Z41	X42	Y42	Z42	
626	3.1300	-0.358846	1.468394	-0.539823	-0.295637	1.464987	-0.699878	-0.269071	1.455816	-0.390699	-0.231225	1.421159	-0.556350	-0.188123	0.988321	-0.440980	-0.228024	0.988471	-0.672109	-0.226488	1.074681	-0.418574	-0.268532	1.067494	-0.687632	-0.352268	1.035419	-0.484577	-0.370141	1.035452	-0.571403	-0.368062	1.033123	-0.529489	-0.273139	0.827088	-0.366002	-0.267408	0.765213	-0.369495	-0.196008	0.779946	-0.376922	-0.210053	0.838675	-0.373081	-0.250523	0.551363	-0.393099	-0.251069	0.537147	-0.515561	-0.328394	0.422843	-0.373280	-0.341455	0.382811	-0.382143	-0.281932	0.369478	-0.377604	-0.272625	0.408836	-0.373498	-0.324181	0.203827	-0.403977	-0.375399	0.203012	-0.442850	-0.245072	0.110686	-0.387925	-0.211982	0.108722	-0.449866	-0.190744	0.094582	-0.445605	-0.334690	0.824011	-0.715943	-0.324060	0.765280	-0.717771	-0.254635	0.779404	-0.733882	-0.272999	0.837637	-0.731077	-0.285808	0.561074	-0.708463	-0.263515	0.540952	-0.592895	-0.363891	0.395361	-0.703916	-0.370648	0.356889	-0.694048	-0.309837	0.348905	-0.704694	-0.310692	0.392040	-0.713111	-0.361339	0.209760	-0.679575	-0.324628	0.224190	-0.610456	-0.403348	0.216100	-0.631694	-0.299836	0.103858	-0.699442	-0.256250	0.101303	-0.637978	-0.243518	0.085181	-0.650939	
627	3.1350	-0.358539	1.463969	-0.540012	-0.295093	1.460539	-0.699962	-0.268897	1.451384	-0.390854	-0.230978	1.416653	-0.556391	-0.189145	0.983986	-0.440768	-0.228406	0.984005	-0.671817	-0.227470	1.070267	-0.418531	-0.268772	1.063051	-0.687501	-0.353114	1.031047	-0.484775	-0.370774	1.031092	-0.571673	-0.368811	1.028761	-0.529731	-0.273592	0.822361	-0.366100	-0.267332	0.760548	-0.369551	-0.196044	0.775849	-0.376945	-0.210571	0.834436	-0.373182	-0.248471	0.546787	-0.392817	-0.249093	0.532729	-0.515186	-0.327226	0.418866	-0.372855	-0.340571	0.378943	-0.381878	-0.281263	0.365106	-0.377365	-0.271600	0.404380	-0.373258	-0.325158	0.199947	-0.403791	-0.376643	0.199461	-0.442323	-0.246321	0.106611	-0.388118	-0.213654	0.104478	-0.450288	-0.192399	0.090506	-0.446130	-0.334387	0.819301	-0.716342	-0.323494	0.760595	-0.718252	-0.254034	0.775056	-0.733987	-0.272656	0.833216	-0.731113	-0.284009	0.556574	-0.709341	-0.262266	0.536554	-0.593636	-0.363114	0.391378	-0.704660	-0.370238	0.353005	-0.694646	-0.309441	0.344480	-0.704912	-0.309899	0.387574	-0.713543	-0.362417	0.205906	-0.679494	-0.325859	0.220297	-0.610312	-0.404600	0.212621	-0.631764	-0.301589	0.099637	-0.698962	-0.258168	0.097052	-0.637377	-0.245500	0.080962	-0.650361	
628	3.1400	-0.358223	1.459307	-0.540195	-0.294541	1.455817	-0.700058	-0.268719	1.446701	-0.390998	-0.230706	1.411881	-0.556447	-0.190191	0.979399	-0.440565	-0.228790	0.979310	-0.671537	-0.228483	1.065604	-0.418492	-0.269023	1.058377	-0.687372	-0.353960	1.026430	-0.484975	-0.371402	1.026475	-0.571947	-0.369559	1.024149	-0.529981	-0.274048	0.817397	-0.366148	-0.267232	0.755650	-0.369548	-0.196068	0.771539	-0.376953	-0.211102	0.829988	-0.373282	-0.246387	0.542009	-0.392520	-0.247095	0.528112	-0.514778	-0.326006	0.414713	-0.372446	-0.339694	0.374885	-0.381550	-0.280562	0.360525	-0.377137	-0.270531	0.399696	-0.373017	-0.326136	0.195872	-0.403595	-0.377884	0.195810	-0.441771	-0.247716	0.102193	-0.388405	-0.215464	0.099934	-0.450834	-0.194263	0.086033	-0.446781	-0.334042	0.814374	-0.716741	-0.322876	0.755712	-0.718767	-0.253389	0.770536	-0.734106	-0.272283	0.828614	-0.731136	-0.282214	0.551860	-0.710254	-0.261053	0.531958	-0.594396	-0.362350	0.387175	-0.705449	-0.369857	0.348909	-0.695287	-0.309072	0.339834	-0.705137	-0.309131	0.382884	-0.713986	-0.363558	0.201862	-0.679461	-0.327196	0.216214	-0.610174	-0.405941	0.209011	-0.631940	-0.303404	0.095115	-0.698298	-0.260244	0.092567	-0.636588	-0.247639	0.076448	-0.649561	
629	3.1450	-0.357895	1.454403	-0.540378	-0.293976	1.450829	-0.700167	-0.268528	1.441760	-0.391128	-0.230421	1.406843	-0.556518	-0.191257	0.974563	-0.440376	-0.229174	0.974372	-0.671277	-0.229523	1.060689	-0.418458	-0.269284	1.053466	-0.687246	-0.354816	1.021554	-0.485181	-0.372033	1.021589	-0.572223	-0.370311	1.019279	-0.530238	-0.274490	0.812189	-0.366147	-0.267093	0.750510	-0.369495	-0.196064	0.767020	-0.376939	-0.211628	0.825324	-0.373372	-0.244268	0.537034	-0.392219	-0.245084	0.523285	-0.514353	-0.324724	0.410374	-0.372048	-0.338803	0.370647	-0.381182	-0.279836	0.355737	-0.376925	-0.269413	0.394799	-0.372791	-0.327127	0.191611	-0.403396	-0.379122	0.192075	-0.441248	-0.249295	0.097358	-0.388728	-0.217446	0.095051	-0.451420	-0.196317	0.081197	-0.447517	-0.333648	0.809226	-0.717143	-0.322192	0.750624	-0.719312	-0.252685	0.765845	-0.734225	-0.271879	0.823824	-0.731146	-0.280409	0.546926	-0.711199	-0.259865	0.527149	-0.595185	-0.361606	0.382765	-0.706279	-0.369514	0.344614	-0.695962	-0.308746	0.334971	-0.705386	-0.308385	0.377976	-0.714460	-0.364768	0.197641	-0.679473	-0.328659	0.211948	-0.610044	-0.407375	0.205269	-0.632224	-0.305327	0.090372	-0.697536	-0.262483	0.087861	-0.635640	-0.249947	0.071669	-0.648554	
630	3.1500	-0.357560	1.449255	-0.540555	-0.293398	1.445573	-0.700289	-0.268322	1.436562	-0.391237	-0.230126	1.401547	-0.556602	-0.192350	0.969467	-0.440194	-0.229565	0.969183	-0.671037	-0.230589	1.055517	-0.418428	-0.269554	1.048308	-0.687128	-0.355686	1.016413	-0.485386	-0.372674	1.016432	-0.572493	-0.371078	1.014138	-0.530494	-0.274894	0.806736	-0.366120	-0.266904	0.745135	-0.369401	-0.196024	0.762287	-0.376898	-0.212137	0.820442	-0.373439	-0.242107	0.531857	-0.391930	-0.243059	0.518245	-0.513927	-0.323383	0.405825	-0.371650	-0.337886	0.366230	-0.380785	-0.279084	0.350747	-0.376734	-0.268259	0.389687	-0.372585	-0.328146	0.187174	-0.403203	-0.380363	0.188251	-0.440779	-0.251092	0.092224	-0.389085	-0.219554	0.089893	-0.452042	-0.198549	0.076025	-0.448282	-0.333206	0.803865	-0.717555	-0.321437	0.745333	-0.719887	-0.251917	0.760975	-0.734334	-0.271430	0.818855	-0.731132	-0.278584	0.541764	-0.712171	-0.258682	0.522110	-0.596013	-0.360891	0.378148	-0.707144	-0.369216	0.340127	-0.696674	-0.308471	0.329890	-0.705656	-0.307671	0.372849	-0.714943	-0.366049	0.193230	-0.679513	-0.330251	0.207505	-0.609926	-0.408898	0.201390	-0.632607	-0.307324	0.085394	-0.696689	-0.264886	0.082949	-0.634545	-0.252404	0.066633	-0.647375	
631	3.1550	-0.357223	1.443869	-0.540721	-0.292812	1.440045	-0.700417	-0.268099	1.431107	-0.391334	-0.229832	1.395996	-0.556703	-0.193462	0.964112	-0.440020	-0.229966	0.963732	-0.670822	-0.231675	1.050090	-0.418402	-0.269835	1.042893	-0.687023	-0.356575	1.010999	-0.485595	-0.373321	1.010979	-0.572755	-0.371854	1.008713	-0.530754	-0.275253	0.801043	-0.366070	-0.266659	0.739522	-0.369274	-0.195937	0.757337	-0.376829	-0.212618	0.815349	-0.373464	-0.239888	0.526471	-0.391657	-0.241016	0.512979	-0.513511	-0.321977	0.401084	-0.371261	-0.336943	0.361639	-0.380359	-0.278301	0.345562	-0.376564	-0.267065	0.384375	-0.372403	-0.329208	0.182591	-0.403034	-0.381601	0.184331	-0.440364	-0.253035	0.086781	-0.389420	-0.221763	0.084519	-0.452665	-0.200924	0.070571	-0.449017	-0.332708	0.798260	-0.717968	-0.320615	0.739836	-0.720482	-0.251080	0.755924	-0.734422	-0.270939	0.813692	-0.731096	-0.276726	0.536364	-0.713160	-0.257498	0.516826	-0.596887	-0.360200	0.373330	-0.708034	-0.368967	0.335436	-0.697415	-0.308245	0.324591	-0.705949	-0.306984	0.367507	-0.715454	-0.367411	0.188648	-0.679586	-0.331965	0.202896	-0.609825	-0.410505	0.197374	-0.633078	-0.309454	0.080189	-0.695738	-0.267454	0.077803	-0.633357	-0.255079	0.061325	-0.646022	
632	3.1600	-0.356891	1.438223	-0.540885	-0.292222	1.434251	-0.700549	-0.267869	1.425384	-0.391436	-0.229538	1.390193	-0.556820	-0.194594	0.958490	-0.439846	-0.230376	0.958012	-0.670634	-0.232782	1.044397	-0.418378	-0.270130	1.037209	-0.686940	-0.357485	1.005305	-0.485809	-0.373981	1.005224	-0.573016	-0.372645	1.002995	-0.531017	-0.275555	0.795113	-0.365999	-0.266354	0.733667	-0.369131	-0.195802	0.752170	-0.376734	-0.213061	0.810035	-0.373451	-0.237593	0.520869	-0.391405	-0.238952	0.507488	-0.513108	-0.320501	0.396149	-0.370884	-0.335965	0.356875	-0.379935	-0.277486	0.340190	-0.376413	-0.265829	0.378869	-0.372238	-0.330333	0.177879	-0.402902	-0.382834	0.180290	-0.440001	-0.255123	0.081213	-0.389838	-0.224097	0.078915	-0.453240	-0.203410	0.064902	-0.449734	-0.332160	0.792420	-0.718384	-0.319717	0.734131	-0.721095	-0.250179	0.750687	-0.734481	-0.270401	0.808329	-0.731050	-0.274820	0.530720	-0.714162	-0.256307	0.511286	-0.597801	-0.359530	0.368312	-0.708940	-0.368763	0.330537	-0.698176	-0.308068	0.319074	-0.706266	-0.306326	0.361946	-0.715969	-0.368852	0.183893	-0.679692	-0.333793	0.198121	-0.609749	-0.412191	0.193219	-0.633610	-0.311705	0.074730	-0.694740	-0.270187	0.072449	-0.632094	-0.257925	0.055774	-0.644597	
633	3.1650	-0.356557	1.432311	-0.541050	-0.291629	1.428198	-0.700686	-0.267630	1.419398	-0.391534	-0.229234	1.384120	-0.556924	-0.195736	0.952599	-0.439669	-0.230795	0.952010	-0.670473	-0.233905	1.038444	-0.418358	-0.270446	1.031247	-0.686882	-0.358422	0.999324	-0.486027	-0.374658	0.999164	-0.573277	-0.373452	0.996974	-0.531285	-0.275798	0.788940	-0.365911	-0.265989	0.727571	-0.368982	-0.195619	0.746779	-0.376619	-0.213454	0.804482	-0.373395	-0.235207	0.515055	-0.391168	-0.236857	0.501781	-0.512725	-0.318946	0.391006	-0.370533	-0.334957	0.351959	-0.379501	-0.276649	0.334634	-0.376282	-0.264556	0.373165	-0.372091	-0.331542	0.173043	-0.402819	-0.384066	0.176126	-0.439695	-0.257385	0.075396	-0.390215	-0.226509	0.073168	-0.453811	-0.205996	0.059030	-0.450419	-0.331575	0.786361	-0.718836	-0.318757	0.728199	-0.721704	-0.249218	0.745237	-0.734503	-0.269828	0.802750	-0.730999	-0.272853	0.524833	-0.715169	-0.255098	0.505480	-0.598751	-0.358879	0.363094	-0.709854	-0.368594	0.325460	-0.698946	-0.307939	0.313343	-0.706602	-0.305690	0.356172	-0.716502	-0.370392	0.178980	-0.679836	-0.335729	0.193190	-0.609706	-0.413963	0.188918	-0.634158	-0.314142	0.069110	-0.693770	-0.273111	0.066876	-0.630808	-0.260979	0.050077	-0.643093	
